<?xml version="1.0" standalone="no"?>
<!DOCTYPE svg PUBLIC "-//W3C//DTD SVG 20010904//EN"
 "http://www.w3.org/TR/2001/REC-SVG-20010904/DTD/svg10.dtd">
<svg version="1.0" xmlns="http://www.w3.org/2000/svg"
 width="700.000000pt" height="700.000000pt" viewBox="0 0 700.000000 700.000000"
 preserveAspectRatio="xMidYMid meet">
<metadata>
Created by potrace 1.14, written by Peter Selinger 2001-2017
</metadata>
<g transform="translate(0.000000,700.000000) scale(0.100000,-0.100000)"
fill="#000000" stroke="none">
<path d="M0 3500 l0 -3500 3500 0 3500 0 0 3500 0 3500 -3500 0 -3500 0 0
-3500z m4382 1148 c171 -329 313 -596 317 -594 4 3 149 273 322 600 l314 595
393 1 c215 0 392 -2 392 -4 0 -3 -245 -447 -545 -987 l-545 -983 0 -763 0
-763 -330 0 -330 0 0 768 0 768 -526 950 c-289 522 -534 964 -545 982 l-18 32
395 -2 396 -3 310 -597z m-2112 -558 l785 -772 5 743 5 744 328 -545 327 -545
0 -978 c0 -538 -4 -977 -8 -975 -5 2 -446 433 -980 958 -535 525 -976 956
-982 958 -7 3 -10 -319 -10 -962 l0 -966 -320 0 -320 0 0 1747 0 1748 193
-191 c105 -105 545 -539 977 -964z"/>
</g>
</svg>
