<?xml version="1.0" encoding="utf-8"?>
<svg width="32px" height="32px" viewBox="0 0 32 32" version="1.1" xmlns:xlink="http://www.w3.org/1999/xlink" xmlns="http://www.w3.org/2000/svg">
  <defs>
    <linearGradient gradientUnits="objectBoundingBox" x1="0.8125" y1="0" x2="0.25" y2="1" id="gradient_1">
      <stop offset="0%" stop-color="#4F6177" />
      <stop offset="100%" stop-color="#2A3541" />
    </linearGradient>
    <path d="M32 0L32 0L32 32L0 32L0 0L32 0Z" id="path_1" />
    <clipPath id="clip_1">
      <use xlink:href="#path_1" clip-rule="evenodd" fill-rule="evenodd" />
    </clipPath>
  </defs>
  <g id="favicon">
    <path d="M32 0L32 0L32 32L0 32L0 0L32 0Z" id="favicon" fill="url(#gradient_1)" stroke="none" />
    <g id="Группа" transform="translate(5 8)" clip-path="url(#clip_1)">
      <path d="M3.33786e-06 16L2.9786 16L2.9786 7.13515L12 16L12 7L9 2L9 8.86487L0 0L3.33786e-06 16Z" id="Вектор" fill="#FFFFFF" fill-rule="evenodd" stroke="none" />
      <path d="M14.9966 16L18.0023 16L18 9.01538L23 0L19.3983 0L16.4719 5.52192L13.6017 0L10 0L14.9966 9.01538L14.9966 16Z" id="Вектор-2" fill="#FFFFFF" fill-rule="evenodd" stroke="none" />
    </g>
  </g>
</svg>